# xmcd
#
# Track frame offsets:
#   150
#   11067
#   23267
#   39697
#   48373
#   63107
#   74641
#   85094
#   96521
#   106672
#   117675
#   128673
#   141620
#   155449
#   170059
#   178864
#   190185
#   201531
#   215943
#   228347
#
# Disc length: 3198 seconds
#
# Revision: 0
# Processed by: cddbd v1.4PL0 Copyright (c) Steve Scherf et al.
# Submitted via: uFREEDB 1.6.0
#
DISCID=2c0c7c14
DTITLE=Arnold, Eddy - Collection, Vol. 2 (X)
DYEAR=1900
DGENRE=Country
TTITLE0=I Can't Stop Loving You
TTITLE1=Casey Jones
TTITLE2=Cool Water
TTITLE3=Daddy's Little Girl
TTITLE4=For The Good Times
TTITLE5=Have I Told You Lately That I Love You
TTITLE6=Help Me Make It Through The Night
TTITLE7=I Love You Because
TTITLE8=I'd Trade All My Tomorrows
TTITLE9=It's A Sin
TTITLE10=Just Call Me Lonesome
TTITLE11=Loving Her Was Easier
TTITLE12=My Mother's Sweet Voice
TTITLE13=Ol' Shep
TTITLE14=Ole Faithful
TTITLE15=Ramblin' Rose
TTITLE16=Tennessee Waltz
TTITLE17=The Wayward Wind
TTITLE18=Tumbling Tumbleweeds
TTITLE19=Welcome To My World
EXTD=
EXTT0=
EXTT1=
EXTT2=
EXTT3=
EXTT4=
EXTT5=
EXTT6=
EXTT7=
EXTT8=
EXTT9=
EXTT10=
EXTT11=
EXTT12=
EXTT13=
EXTT14=
EXTT15=
EXTT16=
EXTT17=
EXTT18=
EXTT19=
PLAYORDER=
